<svg xmlns="http://www.w3.org/2000/svg" xmlns:xlink="http://www.w3.org/1999/xlink" width="500" zoomAndPan="magnify" viewBox="0 0 375 374.999991" height="500" preserveAspectRatio="xMidYMid meet" version="1.0"><defs><g/></defs><rect x="-37.5" width="450" fill="#ffffff" y="-37.499999" height="449.999989" fill-opacity="1"/><rect x="-37.5" width="450" fill="#000000" y="-37.499999" height="449.999989" fill-opacity="1"/><g fill="#ffffff" fill-opacity="1"><g transform="translate(91.399376, 275.860735)"><g><path d="M 162.546875 -190.65625 L 160.875 -183.28125 C 159.28125 -176.125 155.582031 -170.28125 149.78125 -165.75 C 143.988281 -161.226562 137.4375 -158.96875 130.125 -158.96875 L 121.078125 -158.96875 C 114.398438 -158.96875 108.753906 -156.625 104.140625 -151.9375 C 99.535156 -147.25 97.234375 -141.644531 97.234375 -135.125 L 97.234375 -33.359375 C 97.234375 -25.734375 94.929688 -18.984375 90.328125 -13.109375 C 85.722656 -7.234375 79.84375 -3.421875 72.6875 -1.671875 L 65.296875 0 L 65.296875 -141.328125 C 65.296875 -150.378906 67.519531 -158.640625 71.96875 -166.109375 C 76.414062 -173.578125 82.375 -179.535156 89.84375 -183.984375 C 97.3125 -188.429688 105.65625 -190.65625 114.875 -190.65625 Z M 75.546875 -190.65625 L 73.875 -183.28125 C 72.445312 -176.757812 69.191406 -171.273438 64.109375 -166.828125 C 59.023438 -162.378906 53.226562 -159.757812 46.71875 -158.96875 C 45.601562 -158.96875 44.410156 -158.96875 43.140625 -158.96875 L 0 -158.96875 L 1.671875 -166.109375 C 3.253906 -172.785156 6.546875 -178.304688 11.546875 -182.671875 C 16.554688 -187.046875 22.320312 -189.628906 28.84375 -190.421875 C 30.113281 -190.578125 31.300781 -190.65625 32.40625 -190.65625 Z M 75.546875 -190.65625 "/></g></g></g><g fill="#ffffff" fill-opacity="1"><g transform="translate(156.950178, 275.860735)"><g><path d="M 162.546875 -190.65625 L 160.640625 -183.28125 C 159.046875 -176.125 155.390625 -170.28125 149.671875 -165.75 C 143.953125 -161.226562 137.359375 -158.96875 129.890625 -158.96875 L 59.578125 -158.96875 C 54.492188 -158.96875 49.847656 -157.695312 45.640625 -155.15625 C 41.429688 -152.613281 38.054688 -149.234375 35.515625 -145.015625 C 32.972656 -140.804688 31.703125 -136.160156 31.703125 -131.078125 L 31.703125 -32.40625 C 31.703125 -25.101562 29.4375 -18.59375 24.90625 -12.875 C 20.375 -7.15625 14.535156 -3.421875 7.390625 -1.671875 L 0 0 L 0 -138.234375 C 0 -147.921875 2.34375 -156.734375 7.03125 -164.671875 C 11.71875 -172.617188 18.03125 -178.9375 25.96875 -183.625 C 33.914062 -188.3125 42.738281 -190.65625 52.4375 -190.65625 Z M 131.796875 -106.296875 C 130.203125 -98.984375 126.503906 -93.0625 120.703125 -88.53125 C 114.910156 -84.007812 108.359375 -81.75 101.046875 -81.75 L 41.953125 -81.75 C 41.953125 -87.625 43.378906 -92.941406 46.234375 -97.703125 C 49.097656 -102.472656 52.910156 -106.285156 57.671875 -109.140625 C 62.441406 -112.003906 67.765625 -113.4375 73.640625 -113.4375 L 133.46875 -113.4375 Z M 131.796875 -106.296875 "/></g></g></g></svg>